# xmcd CD database file
#
# Track frame offsets:
#	150
#	19307
#	36800
#	57895
#	81247
#	103719
#	115769
#	136846
#	158373
#	174275
#	198895
#	218757
#	234359
#	248236
#	260550
#	280922
#	295774
#	318351
#	335678
#
# Disc length: 4730 seconds
#
# Revision: 2
# Processed by: cddbd v1.5.1PL0 Copyright (c) Steve Scherf et al.
# Submitted via: CDex 1.51
#
DISCID=05127813
DTITLE=Joe Cocker - Best Ballads 2000
DYEAR=1900
DGENRE=
TTITLE0=You Can Leave Your Hat On
TTITLE1=Don't Let Me Be Misunderstood
TTITLE2=Have A Little Faith In Me
TTITLE3=With A Little Help From My Friends
TTITLE4=Different Roads
TTITLE5=You Are So Beautiful
TTITLE6=N'Oblez
TTITLE7=When The Night Comes
TTITLE8=I Can Stand A Little Rain
TTITLE9=Where Would I Be Now
TTITLE10=Many Rivers To Cross
TTITLE11=Night Calls
TTITLE12=Anybody Seen My Girl ?
TTITLE13=You Are So Beautiful
TTITLE14=Love TO Lean On
TTITLE15=Don't Forget Me
TTITLE16=You've Got To Hide Your Love Away
TTITLE17=Up Where We Belong
TTITLE18=On My Way Home
EXTD=
EXTT0=
EXTT1=
EXTT2=
EXTT3=
EXTT4=
EXTT5=
EXTT6=
EXTT7=
EXTT8=
EXTT9=
EXTT10=
EXTT11=
EXTT12=
EXTT13=
EXTT14=
EXTT15=
EXTT16=
EXTT17=
EXTT18=
PLAYORDER=
